# xmcd CD database file
#
# Track frame offsets:
#	150
#	2450
#	23328
#	47684
#	68675
#	91947
#	109885
#	122270
#	142218
#	175049
#	193791
#	216399
#	233558
#	275641
#	307175
#
# Disc length: 4398 seconds
#
# Revision: 0
# Processed by: cddbd v1.5.2PL0 Copyright (c) Steve Scherf et al.
# Submitted via: CDex 1.51
#
DISCID=c9112c0f
DTITLE=John Campbelljohn Band -  Official Bootleg
DYEAR=2007
DGENRE=Blues
TTITLE0=Introduction
TTITLE1=Pretty Paula Doy
TTITLE2=Heart Like A Stone
TTITLE3=Cherokee Boogie
TTITLE4=Slow Down
TTITLE5=Sydney Steel
TTITLE6=Ready For A Riot
TTITLE7=You Got To Move
TTITLE8=Don't Let The Drinkin' Do The Thinkin'
TTITLE9=Phone Booth
TTITLE10=Kathaline
TTITLE11=Johnny Rock And Roll
TTITLE12=Dance Of The Seven Sleeper , I Want To Get Up
TTITLE13=The World Is Crazy
TTITLE14=Goodnight Everybody Goodnight
EXTD=YEAR: 2007
EXTT0=
EXTT1=
EXTT2=
EXTT3=
EXTT4=
EXTT5=
EXTT6=
EXTT7=
EXTT8=
EXTT9=
EXTT10=
EXTT11=
EXTT12=
EXTT13=
EXTT14=
PLAYORDER=
